<svg xmlns="http://www.w3.org/2000/svg" width="397.66253303079037" height="302.9499996409696" viewBox="0 0 397.66253303079037 302.9499996409696">

  <defs>
    <style>
      text { font-family: system-ui, -apple-system, "Segoe UI", sans-serif; font-size: 12px; fill: #111827; }
      .shape-rect { fill: #ffffff; stroke: #9ca3af; stroke-width: 1; }
      .shape-entity { fill: #ffffff; stroke: #111827; stroke-width: 2; }
      .shape-circle { fill: #ffffff; stroke: #9ca3af; stroke-width: 1; }
      .shape-pill { fill: #ffffff; stroke: #9ca3af; stroke-width: 1; }
      .shape-db { fill: #ffffff; stroke: #9ca3af; stroke-width: 1; }
      .conn { stroke: #111827; stroke-width: 2; fill: none; }
    </style>
    <marker id="arrow-end" markerWidth="10" markerHeight="7" refX="10" refY="3.5"
            orient="auto" markerUnits="strokeWidth">
      <polygon points="0 0, 10 3.5, 0 7" fill="#111827"/>
    </marker>
    <marker id="arrow-start" markerWidth="10" markerHeight="7" refX="0" refY="3.5"
            orient="auto" markerUnits="strokeWidth">
      <polygon points="10 0, 0 3.5, 10 7" fill="#111827"/>
    </marker>
  </defs>
        
<rect class="shape-rect" x="40.02498851102939" y="79.42498599781706" width="119.99999999999996" height="45.60001148897057" rx="4" ry="4" />
<text x="100.02498851102936" y="106.22499174230235" text-anchor="middle">Formulario HTML</text>
<rect class="shape-rect" x="40" y="40" width="119.99999999999996" height="39.99998653636258" rx="4" ry="4" />
<text x="99.99999999999997" y="63.999993268181285" text-anchor="middle">CSS</text>
<rect class="shape-rect" x="40.01247630399814" y="125.29999676872697" width="119.99999999999996" height="39.999999999999986" rx="4" ry="4" />
<text x="100.01247630399811" y="149.29999676872697" text-anchor="middle">PHP</text>
<rect class="shape-rect" x="147.66253303079043" y="222.9499996409696" width="119.99999999999996" height="39.999999999999986" rx="4" ry="4" />
<text x="207.6625330307904" y="246.9499996409696" text-anchor="middle">MySQL</text>
<rect class="shape-rect" x="237.07501579733452" y="122.94999964096965" width="119.99999999999996" height="39.999999999999986" rx="4" ry="4" />
<text x="297.0750157973345" y="146.94999964096965" text-anchor="middle">PHP</text>
<rect class="shape-rect" x="237.66253303079037" y="81.77500107709096" width="119.99999999999996" height="39.999999999999986" rx="4" ry="4" />
<text x="297.66253303079037" y="105.77500107709096" text-anchor="middle">HTML</text>
<rect class="shape-rect" x="237.07501579733452" y="41.77500107709099" width="119.99999999999996" height="39.999999999999986" rx="4" ry="4" />
<text x="297.0750157973345" y="65.77500107709099" text-anchor="middle">CSS</text>
<path class="conn" d="M 122.06061835426163 165.29999676872697 L 185.61439098052688 222.9499996409696" marker-end="url(#arrow-end)" />
<path class="conn" d="M 225.5450295840992 222.9499996409696 L 279.19251924402573 162.9499996409696" marker-start="url(#arrow-start)" marker-end="url(#arrow-end)" />
</svg>